<?xml version="1.0" encoding="UTF-8"?>
<svg width="40px" height="40px" viewBox="0 0 40 40" version="1.1" xmlns="http://www.w3.org/2000/svg" xmlns:xlink="http://www.w3.org/1999/xlink">
    <!-- Generator: Sketch 64 (93537) - https://sketch.com -->
    <title>AWS_40</title>
    <desc>Created with Sketch.</desc>
    <g id="AWS_40" stroke="none" stroke-width="1" fill="none" fill-rule="evenodd">
        <rect fill="#1B2532" x="0" y="0" width="40" height="40"></rect>
        <g id="aws-full" transform="translate(3.500000, 10.700000)" fill="#FFFFFF">
            <path d="M9.36022599,7.16813559 C9.36022599,7.57367232 9.4040678,7.90248588 9.48079096,8.14361582 C9.56847458,8.38474576 9.6780791,8.64779661 9.83152542,8.93276836 C9.88632768,9.02045198 9.90824859,9.10813559 9.90824859,9.18485876 C9.90824859,9.29446328 9.84248588,9.4040678 9.7,9.51367232 L9.00949153,9.9740113 C8.91084746,10.039774 8.81220339,10.0726554 8.72451977,10.0726554 C8.61491525,10.0726554 8.50531073,10.0178531 8.39570621,9.91920904 C8.24225989,9.75480226 8.11073446,9.57943503 8.00112994,9.4040678 C7.89152542,9.21774011 7.7819209,9.00949153 7.66135593,8.75740113 C6.80644068,9.76576271 5.73231638,10.2699435 4.43898305,10.2699435 C3.51830508,10.2699435 2.7839548,10.0068927 2.24689266,9.48079096 C1.70983051,8.95468927 1.43581921,8.25322034 1.43581921,7.37638418 C1.43581921,6.44474576 1.76463277,5.68847458 2.43322034,5.11853107 C3.10180791,4.54858757 3.98960452,4.26361582 5.11853107,4.26361582 C5.49118644,4.26361582 5.87480226,4.29649718 6.28033898,4.35129944 C6.68587571,4.40610169 7.10237288,4.49378531 7.54079096,4.59242938 L7.54079096,3.79231638 C7.54079096,2.95932203 7.36542373,2.37841808 7.02564972,2.03864407 C6.67491525,1.69887006 6.08305085,1.53446328 5.23909605,1.53446328 C4.85548023,1.53446328 4.46090395,1.57830508 4.05536723,1.67694915 C3.64983051,1.77559322 3.25525424,1.89615819 2.87163842,2.04960452 C2.69627119,2.12632768 2.56474576,2.17016949 2.4880226,2.1920904 C2.41129944,2.2140113 2.35649718,2.22497175 2.31265537,2.22497175 C2.15920904,2.22497175 2.08248588,2.11536723 2.08248588,1.88519774 L2.08248588,1.34813559 C2.08248588,1.17276836 2.10440678,1.04124294 2.15920904,0.964519774 C2.2140113,0.88779661 2.31265537,0.811073446 2.46610169,0.734350282 C2.84971751,0.537062147 3.3100565,0.372655367 3.84711864,0.241129944 C4.38418079,0.0986440678 4.95412429,0.0328813559 5.55694915,0.0328813559 C6.86124294,0.0328813559 7.81480226,0.328813559 8.42858757,0.920677966 C9.03141243,1.51254237 9.33830508,2.41129944 9.33830508,3.61694915 L9.33830508,7.16813559 L9.36022599,7.16813559 Z M4.91028249,8.83412429 C5.2719774,8.83412429 5.64463277,8.76836158 6.03920904,8.63683616 C6.43378531,8.50531073 6.78451977,8.26418079 7.08045198,7.93536723 C7.25581921,7.72711864 7.38734463,7.49694915 7.45310734,7.23389831 C7.51887006,6.97084746 7.56271186,6.65299435 7.56271186,6.28033898 L7.56271186,5.82 C7.24485876,5.74327684 6.90508475,5.67751412 6.55435028,5.63367232 C6.20361582,5.58983051 5.86384181,5.5679096 5.5240678,5.5679096 C4.78971751,5.5679096 4.25265537,5.71039548 3.89096045,6.00632768 C3.52926554,6.30225989 3.35389831,6.71875706 3.35389831,7.26677966 C3.35389831,7.7819209 3.48542373,8.16553672 3.75943503,8.42858757 C4.02248588,8.70259887 4.40610169,8.83412429 4.91028249,8.83412429 Z M13.7115254,10.0178531 C13.5142373,10.0178531 13.3827119,9.98497175 13.2950282,9.90824859 C13.2073446,9.84248588 13.1306215,9.68903955 13.0648588,9.48079096 L10.4891525,1.00836158 C10.4233898,0.789152542 10.3905085,0.646666667 10.3905085,0.569943503 C10.3905085,0.394576271 10.4781921,0.295932203 10.6535593,0.295932203 L11.7276836,0.295932203 C11.9359322,0.295932203 12.0784181,0.328813559 12.1551412,0.405536723 C12.2428249,0.471299435 12.3085876,0.624745763 12.3743503,0.83299435 L14.2157062,8.08881356 L15.9255367,0.83299435 C15.980339,0.613785311 16.0461017,0.471299435 16.1337853,0.405536723 C16.2214689,0.339774011 16.3749153,0.295932203 16.5722034,0.295932203 L17.4490395,0.295932203 C17.6572881,0.295932203 17.799774,0.328813559 17.8874576,0.405536723 C17.9751412,0.471299435 18.0518644,0.624745763 18.0957062,0.83299435 L19.8274576,8.17649718 L21.7236158,0.83299435 C21.7893785,0.613785311 21.8661017,0.471299435 21.9428249,0.405536723 C22.0305085,0.339774011 22.1729944,0.295932203 22.3702825,0.295932203 L23.3896045,0.295932203 C23.5649718,0.295932203 23.6636158,0.383615819 23.6636158,0.569943503 C23.6636158,0.624745763 23.6526554,0.679548023 23.6416949,0.745310734 C23.6307345,0.811073446 23.6088136,0.898757062 23.5649718,1.01932203 L20.9235028,9.49175141 C20.8577401,9.71096045 20.7810169,9.85344633 20.6933333,9.91920904 C20.6056497,9.98497175 20.4631638,10.0288136 20.2768362,10.0288136 L19.3342373,10.0288136 C19.1259887,10.0288136 18.9835028,9.9959322 18.8958192,9.91920904 C18.8081356,9.84248588 18.7314124,9.7 18.6875706,9.48079096 L16.9887006,2.41129944 L15.300791,9.46983051 C15.2459887,9.68903955 15.180226,9.83152542 15.0925424,9.90824859 C15.0048588,9.98497175 14.8514124,10.0178531 14.6541243,10.0178531 L13.7115254,10.0178531 Z M27.7957062,10.3137853 C27.2257627,10.3137853 26.6558192,10.2480226 26.1077966,10.1164972 C25.559774,9.98497175 25.1323164,9.84248588 24.8473446,9.6780791 C24.6719774,9.57943503 24.5514124,9.46983051 24.5075706,9.37118644 C24.4637288,9.27254237 24.4418079,9.16293785 24.4418079,9.06429379 L24.4418079,8.50531073 C24.4418079,8.27514124 24.5294915,8.16553672 24.6938983,8.16553672 C24.759661,8.16553672 24.8254237,8.17649718 24.8911864,8.19841808 C24.9569492,8.22033898 25.0555932,8.26418079 25.1651977,8.3080226 C25.5378531,8.47242938 25.9433898,8.6039548 26.3708475,8.69163842 C26.8092655,8.77932203 27.2367232,8.82316384 27.6751412,8.82316384 C28.3656497,8.82316384 28.9027119,8.70259887 29.2753672,8.46146893 C29.6480226,8.22033898 29.8453107,7.86960452 29.8453107,7.42022599 C29.8453107,7.11333333 29.7466667,6.86124294 29.5493785,6.65299435 C29.3520904,6.44474576 28.979435,6.25841808 28.4423729,6.08305085 L26.8531073,5.58983051 C26.0529944,5.33774011 25.4611299,4.96508475 25.099435,4.47186441 C24.7377401,3.98960452 24.5514124,3.45254237 24.5514124,2.88259887 C24.5514124,2.42225989 24.6500565,2.01672316 24.8473446,1.6659887 C25.0446328,1.31525424 25.3076836,1.00836158 25.6364972,0.767231638 C25.9653107,0.515141243 26.3379661,0.328813559 26.7763842,0.197288136 C27.2148023,0.0657627119 27.6751412,0.010960452 28.1574011,0.010960452 C28.3985311,0.010960452 28.6506215,0.021920904 28.8917514,0.0548022599 C29.1438418,0.0876836158 29.3740113,0.131525424 29.6041808,0.175367232 C29.8233898,0.230169492 30.0316384,0.284971751 30.2289266,0.350734463 C30.4262147,0.416497175 30.579661,0.482259887 30.6892655,0.548022599 C30.8427119,0.635706215 30.9523164,0.723389831 31.0180791,0.822033898 C31.0838418,0.909717514 31.1167232,1.03028249 31.1167232,1.18372881 L31.1167232,1.69887006 C31.1167232,1.92903955 31.0290395,2.04960452 30.8646328,2.04960452 C30.7769492,2.04960452 30.6344633,2.00576271 30.4481356,1.9180791 C29.8233898,1.63310734 29.1219209,1.49062147 28.3437288,1.49062147 C27.7189831,1.49062147 27.2257627,1.58926554 26.8859887,1.79751412 C26.5462147,2.00576271 26.3708475,2.32361582 26.3708475,2.77299435 C26.3708475,3.07988701 26.480452,3.34293785 26.699661,3.55118644 C26.9188701,3.75943503 27.3244068,3.96768362 27.9053107,4.1540113 L29.4616949,4.64723164 C30.2508475,4.89932203 30.820791,5.2500565 31.160565,5.69943503 C31.500339,6.14881356 31.6647458,6.6639548 31.6647458,7.23389831 C31.6647458,7.70519774 31.5661017,8.13265537 31.379774,8.50531073 C31.1824859,8.8779661 30.919435,9.20677966 30.579661,9.46983051 C30.239887,9.74384181 29.8343503,9.94112994 29.3630508,10.0836158 C28.8698305,10.2370621 28.3546893,10.3137853 27.7957062,10.3137853 Z" id="Shape" fill-rule="nonzero"></path>
            <g id="Group" transform="translate(0.000000, 12.275706)">
                <path d="M29.8672316,3.36485876 C26.2612429,6.02824859 21.0221469,7.44214689 16.5174011,7.44214689 C10.2041808,7.44214689 4.51570621,5.10757062 0.21920904,1.22757062 C-0.120564972,0.920677966 0.186327684,0.504180791 0.591864407,0.745310734 C5.23909605,3.44158192 10.9714124,5.07468927 16.9010169,5.07468927 C20.9015819,5.07468927 25.2967232,4.24169492 29.3411299,2.53186441 C29.9439548,2.25785311 30.459096,2.92644068 29.8672316,3.36485876 Z" id="Path"></path>
                <path d="M31.3688136,1.65502825 C30.9084746,1.06316384 28.3218079,1.3700565 27.1490395,1.51254237 C26.7983051,1.55638418 26.7435028,1.24949153 27.0613559,1.01932203 C29.1219209,-0.427457627 32.5087006,-0.010960452 32.9032768,0.471299435 C33.2978531,0.964519774 32.7936723,4.35129944 30.8646328,5.97344633 C30.5687006,6.22553672 30.2837288,6.0940113 30.4152542,5.76519774 C30.8536723,4.68011299 31.8291525,2.2359322 31.3688136,1.65502825 Z" id="Path"></path>
            </g>
        </g>
    </g>
</svg>