<?xml version="1.0" encoding="UTF-8"?>
<svg width="24px" height="24px" viewBox="0 0 24 24" version="1.1" xmlns="http://www.w3.org/2000/svg" xmlns:xlink="http://www.w3.org/1999/xlink">
    <!-- Generator: Sketch 64 (93537) - https://sketch.com -->
    <title>AWS_24</title>
    <desc>Created with Sketch.</desc>
    <g id="AWS_24" stroke="none" stroke-width="1" fill="none" fill-rule="evenodd">
        <rect fill="#1B2532" x="0" y="0" width="24" height="24"></rect>
        <g id="aws-full" transform="translate(2.100000, 6.420000)" fill="#FFFFFF">
            <path d="M5.61613559,4.30088136 C5.61613559,4.54420339 5.64244068,4.74149153 5.68847458,4.88616949 C5.74108475,5.03084746 5.80684746,5.18867797 5.89891525,5.35966102 C5.93179661,5.41227119 5.94494915,5.46488136 5.94494915,5.51091525 C5.94494915,5.57667797 5.90549153,5.64244068 5.82,5.70820339 L5.40569492,5.98440678 C5.34650847,6.02386441 5.28732203,6.04359322 5.23471186,6.04359322 C5.16894915,6.04359322 5.10318644,6.01071186 5.03742373,5.95152542 C4.94535593,5.85288136 4.86644068,5.74766102 4.80067797,5.64244068 C4.73491525,5.53064407 4.66915254,5.40569492 4.59681356,5.25444068 C4.08386441,5.85945763 3.43938983,6.1619661 2.66338983,6.1619661 C2.11098305,6.1619661 1.67037288,6.00413559 1.34813559,5.68847458 C1.02589831,5.37281356 0.861491525,4.9519322 0.861491525,4.42583051 C0.861491525,3.86684746 1.05877966,3.41308475 1.4599322,3.07111864 C1.86108475,2.72915254 2.39376271,2.55816949 3.07111864,2.55816949 C3.29471186,2.55816949 3.52488136,2.57789831 3.76820339,2.61077966 C4.01152542,2.64366102 4.26142373,2.69627119 4.52447458,2.75545763 L4.52447458,2.27538983 C4.52447458,1.77559322 4.41925424,1.42705085 4.21538983,1.22318644 C4.00494915,1.01932203 3.64983051,0.920677966 3.14345763,0.920677966 C2.91328814,0.920677966 2.67654237,0.946983051 2.43322034,1.00616949 C2.18989831,1.06535593 1.95315254,1.13769492 1.72298305,1.22976271 C1.61776271,1.27579661 1.53884746,1.30210169 1.49281356,1.31525424 C1.44677966,1.32840678 1.41389831,1.33498305 1.38759322,1.33498305 C1.29552542,1.33498305 1.24949153,1.26922034 1.24949153,1.13111864 L1.24949153,0.808881356 C1.24949153,0.703661017 1.26264407,0.624745763 1.29552542,0.578711864 C1.32840678,0.532677966 1.38759322,0.486644068 1.47966102,0.440610169 C1.70983051,0.322237288 1.9860339,0.22359322 2.30827119,0.144677966 C2.63050847,0.0591864407 2.97247458,0.0197288136 3.33416949,0.0197288136 C4.11674576,0.0197288136 4.68888136,0.197288136 5.05715254,0.55240678 C5.41884746,0.907525424 5.60298305,1.44677966 5.60298305,2.17016949 L5.60298305,4.30088136 L5.61613559,4.30088136 Z M2.94616949,5.30047458 C3.16318644,5.30047458 3.38677966,5.26101695 3.62352542,5.18210169 C3.86027119,5.10318644 4.07071186,4.95850847 4.24827119,4.76122034 C4.35349153,4.63627119 4.43240678,4.49816949 4.47186441,4.34033898 C4.51132203,4.18250847 4.53762712,3.99179661 4.53762712,3.76820339 L4.53762712,3.492 C4.34691525,3.4459661 4.14305085,3.40650847 3.93261017,3.38020339 C3.72216949,3.35389831 3.51830508,3.34074576 3.31444068,3.34074576 C2.87383051,3.34074576 2.55159322,3.42623729 2.33457627,3.60379661 C2.11755932,3.78135593 2.01233898,4.03125424 2.01233898,4.3600678 C2.01233898,4.66915254 2.09125424,4.89932203 2.25566102,5.05715254 C2.41349153,5.22155932 2.64366102,5.30047458 2.94616949,5.30047458 Z M8.22691525,6.01071186 C8.10854237,6.01071186 8.02962712,5.99098305 7.97701695,5.94494915 C7.92440678,5.90549153 7.87837288,5.81342373 7.83891525,5.68847458 L6.29349153,0.605016949 C6.2540339,0.473491525 6.23430508,0.388 6.23430508,0.341966102 C6.23430508,0.236745763 6.28691525,0.177559322 6.39213559,0.177559322 L7.03661017,0.177559322 C7.16155932,0.177559322 7.24705085,0.197288136 7.29308475,0.243322034 C7.34569492,0.282779661 7.38515254,0.374847458 7.42461017,0.49979661 L8.52942373,4.85328814 L9.55532203,0.49979661 C9.58820339,0.368271186 9.62766102,0.282779661 9.68027119,0.243322034 C9.73288136,0.203864407 9.82494915,0.177559322 9.94332203,0.177559322 L10.4694237,0.177559322 C10.5943729,0.177559322 10.6798644,0.197288136 10.7324746,0.243322034 C10.7850847,0.282779661 10.8311186,0.374847458 10.8574237,0.49979661 L11.8964746,4.90589831 L13.0341695,0.49979661 C13.0736271,0.368271186 13.119661,0.282779661 13.1656949,0.243322034 C13.2183051,0.203864407 13.3037966,0.177559322 13.4221695,0.177559322 L14.0337627,0.177559322 C14.1389831,0.177559322 14.1981695,0.230169492 14.1981695,0.341966102 C14.1981695,0.374847458 14.1915932,0.407728814 14.1850169,0.447186441 C14.1784407,0.486644068 14.1652881,0.539254237 14.1389831,0.61159322 L12.5541017,5.69505085 C12.5146441,5.82657627 12.4686102,5.9120678 12.416,5.95152542 C12.3633898,5.99098305 12.2778983,6.01728814 12.1661017,6.01728814 L11.6005424,6.01728814 C11.4755932,6.01728814 11.3901017,5.99755932 11.3374915,5.95152542 C11.2848814,5.90549153 11.2388475,5.82 11.2125424,5.68847458 L10.1932203,1.44677966 L9.18047458,5.68189831 C9.14759322,5.81342373 9.10813559,5.89891525 9.05552542,5.94494915 C9.00291525,5.99098305 8.91084746,6.01071186 8.79247458,6.01071186 L8.22691525,6.01071186 Z M16.6774237,6.18827119 C16.3354576,6.18827119 15.9934915,6.14881356 15.664678,6.06989831 C15.3358644,5.99098305 15.0793898,5.90549153 14.9084068,5.80684746 C14.8031864,5.74766102 14.7308475,5.68189831 14.7045424,5.62271186 C14.6782373,5.56352542 14.6650847,5.49776271 14.6650847,5.43857627 L14.6650847,5.10318644 C14.6650847,4.96508475 14.7176949,4.89932203 14.816339,4.89932203 C14.8557966,4.89932203 14.8952542,4.90589831 14.9347119,4.91905085 C14.9741695,4.93220339 15.0333559,4.95850847 15.0991186,4.98481356 C15.3227119,5.08345763 15.5660339,5.16237288 15.8225085,5.21498305 C16.0855593,5.26759322 16.3420339,5.29389831 16.6050847,5.29389831 C17.0193898,5.29389831 17.3416271,5.22155932 17.5652203,5.07688136 C17.7888136,4.93220339 17.9071864,4.72176271 17.9071864,4.45213559 C17.9071864,4.268 17.848,4.11674576 17.7296271,3.99179661 C17.6112542,3.86684746 17.387661,3.75505085 17.0654237,3.64983051 L16.1118644,3.35389831 C15.6317966,3.20264407 15.276678,2.97905085 15.059661,2.68311864 C14.8426441,2.39376271 14.7308475,2.07152542 14.7308475,1.72955932 C14.7308475,1.45335593 14.7900339,1.2100339 14.9084068,0.99959322 C15.0267797,0.789152542 15.1846102,0.605016949 15.3818983,0.460338983 C15.5791864,0.309084746 15.8027797,0.197288136 16.0658305,0.118372881 C16.3288814,0.0394576271 16.6050847,0.00657627119 16.8944407,0.00657627119 C17.0391186,0.00657627119 17.1903729,0.0131525424 17.3350508,0.0328813559 C17.4863051,0.0526101695 17.6244068,0.0789152542 17.7625085,0.105220339 C17.8940339,0.138101695 18.0189831,0.170983051 18.1373559,0.210440678 C18.2557288,0.249898305 18.3477966,0.289355932 18.4135593,0.328813559 C18.5056271,0.381423729 18.5713898,0.434033898 18.6108475,0.493220339 C18.6503051,0.545830508 18.6700339,0.618169492 18.6700339,0.710237288 L18.6700339,1.01932203 C18.6700339,1.15742373 18.6174237,1.22976271 18.5187797,1.22976271 C18.4661695,1.22976271 18.380678,1.20345763 18.2688814,1.15084746 C17.8940339,0.979864407 17.4731525,0.894372881 17.0062373,0.894372881 C16.6313898,0.894372881 16.3354576,0.953559322 16.1315932,1.07850847 C15.9277288,1.20345763 15.8225085,1.39416949 15.8225085,1.66379661 C15.8225085,1.8479322 15.8882712,2.00576271 16.0197966,2.13071186 C16.151322,2.25566102 16.3946441,2.38061017 16.7431864,2.49240678 L17.6770169,2.78833898 C18.1505085,2.93959322 18.4924746,3.1500339 18.696339,3.41966102 C18.9002034,3.68928814 18.9988475,3.99837288 18.9988475,4.34033898 C18.9988475,4.62311864 18.939661,4.87959322 18.8278644,5.10318644 C18.7094915,5.32677966 18.551661,5.5240678 18.3477966,5.68189831 C18.1439322,5.84630508 17.9006102,5.96467797 17.6178305,6.05016949 C17.3218983,6.14223729 17.0128136,6.18827119 16.6774237,6.18827119 Z" id="Shape" fill-rule="nonzero"></path>
            <g id="Group" transform="translate(0.000000, 7.365424)">
                <path d="M17.920339,2.01891525 C15.7567458,3.61694915 12.6132881,4.46528814 9.91044068,4.46528814 C6.12250847,4.46528814 2.70942373,3.06454237 0.131525424,0.736542373 C-0.0723389831,0.55240678 0.11179661,0.302508475 0.355118644,0.447186441 C3.14345763,2.06494915 6.58284746,3.04481356 10.1406102,3.04481356 C12.5409492,3.04481356 15.1780339,2.54501695 17.604678,1.51911864 C17.9663729,1.35471186 18.2754576,1.75586441 17.920339,2.01891525 Z" id="Path"></path>
                <path d="M18.8212881,0.993016949 C18.5450847,0.637898305 16.9930847,0.822033898 16.2894237,0.907525424 C16.0789831,0.933830508 16.0461017,0.749694915 16.2368136,0.61159322 C17.4731525,-0.256474576 19.5052203,-0.00657627119 19.7419661,0.282779661 C19.9787119,0.578711864 19.6762034,2.61077966 18.5187797,3.5840678 C18.3412203,3.73532203 18.1702373,3.65640678 18.2491525,3.45911864 C18.5122034,2.8080678 19.0974915,1.34155932 18.8212881,0.993016949 Z" id="Path"></path>
            </g>
        </g>
    </g>
</svg>