<?xml version="1.0" encoding="UTF-8"?>
<svg width="32px" height="32px" viewBox="0 0 32 32" version="1.1" xmlns="http://www.w3.org/2000/svg" xmlns:xlink="http://www.w3.org/1999/xlink">
    <!-- Generator: Sketch 64 (93537) - https://sketch.com -->
    <title>AWS_32</title>
    <desc>Created with Sketch.</desc>
    <g id="AWS_32" stroke="none" stroke-width="1" fill="none" fill-rule="evenodd">
        <rect fill="#1B2532" x="0" y="0" width="32" height="32"></rect>
        <g id="aws-full" transform="translate(2.800000, 8.560000)" fill="#FFFFFF">
            <path d="M7.48818079,5.73450847 C7.48818079,6.05893785 7.52325424,6.3219887 7.58463277,6.51489266 C7.65477966,6.70779661 7.74246328,6.91823729 7.86522034,7.14621469 C7.90906215,7.21636158 7.92659887,7.28650847 7.92659887,7.34788701 C7.92659887,7.43557062 7.8739887,7.52325424 7.76,7.61093785 L7.20759322,7.97920904 C7.12867797,8.03181921 7.04976271,8.05812429 6.97961582,8.05812429 C6.8919322,8.05812429 6.80424859,8.01428249 6.71656497,7.93536723 C6.59380791,7.80384181 6.48858757,7.66354802 6.40090395,7.52325424 C6.31322034,7.37419209 6.22553672,7.20759322 6.12908475,7.0059209 C5.44515254,7.81261017 4.58585311,8.2159548 3.55118644,8.2159548 C2.81464407,8.2159548 2.22716384,8.00551412 1.79751412,7.58463277 C1.36786441,7.16375141 1.14865537,6.60257627 1.14865537,5.90110734 C1.14865537,5.15579661 1.41170621,4.55077966 1.94657627,4.09482486 C2.48144633,3.63887006 3.19168362,3.41089266 4.09482486,3.41089266 C4.39294915,3.41089266 4.69984181,3.43719774 5.02427119,3.48103955 C5.34870056,3.52488136 5.68189831,3.59502825 6.03263277,3.6739435 L6.03263277,3.03385311 C6.03263277,2.36745763 5.89233898,1.90273446 5.62051977,1.63091525 C5.3399322,1.35909605 4.86644068,1.22757062 4.19127684,1.22757062 C3.88438418,1.22757062 3.56872316,1.26264407 3.24429379,1.34155932 C2.91986441,1.42047458 2.60420339,1.51692655 2.29731073,1.63968362 C2.15701695,1.70106215 2.05179661,1.73613559 1.99041808,1.75367232 C1.92903955,1.77120904 1.88519774,1.7799774 1.85012429,1.7799774 C1.72736723,1.7799774 1.6659887,1.69229379 1.6659887,1.50815819 L1.6659887,1.07850847 C1.6659887,0.938214689 1.68352542,0.83299435 1.72736723,0.771615819 C1.77120904,0.710237288 1.85012429,0.648858757 1.97288136,0.587480226 C2.27977401,0.429649718 2.6480452,0.298124294 3.07769492,0.192903955 C3.50734463,0.0789152542 3.96329944,0.0263050847 4.44555932,0.0263050847 C5.48899435,0.0263050847 6.25184181,0.263050847 6.74287006,0.736542373 C7.22512994,1.2100339 7.47064407,1.92903955 7.47064407,2.89355932 L7.47064407,5.73450847 L7.48818079,5.73450847 Z M3.92822599,7.06729944 C4.21758192,7.06729944 4.51570621,7.01468927 4.83136723,6.90946893 C5.14702825,6.80424859 5.42761582,6.61134463 5.66436158,6.34829379 C5.80465537,6.18169492 5.90987571,5.99755932 5.96248588,5.78711864 C6.01509605,5.57667797 6.05016949,5.32239548 6.05016949,5.02427119 L6.05016949,4.656 C5.79588701,4.59462147 5.5240678,4.5420113 5.24348023,4.50693785 C4.96289266,4.47186441 4.69107345,4.45432768 4.41925424,4.45432768 C3.83177401,4.45432768 3.40212429,4.56831638 3.11276836,4.80506215 C2.82341243,5.04180791 2.68311864,5.37500565 2.68311864,5.81342373 C2.68311864,6.22553672 2.78833898,6.53242938 3.00754802,6.74287006 C3.2179887,6.9620791 3.52488136,7.06729944 3.92822599,7.06729944 Z M10.9692203,8.01428249 C10.8113898,8.01428249 10.7061695,7.9879774 10.6360226,7.92659887 C10.5658757,7.8739887 10.5044972,7.75123164 10.451887,7.58463277 L8.39132203,0.806689266 C8.33871186,0.631322034 8.31240678,0.517333333 8.31240678,0.455954802 C8.31240678,0.315661017 8.38255367,0.236745763 8.52284746,0.236745763 L9.38214689,0.236745763 C9.54874576,0.236745763 9.66273446,0.263050847 9.72411299,0.324429379 C9.79425989,0.377039548 9.84687006,0.49979661 9.89948023,0.66639548 L11.372565,6.47105085 L12.7404294,0.66639548 C12.7842712,0.491028249 12.8368814,0.377039548 12.9070282,0.324429379 C12.9771751,0.271819209 13.0999322,0.236745763 13.2577627,0.236745763 L13.9592316,0.236745763 C14.1258305,0.236745763 14.2398192,0.263050847 14.3099661,0.324429379 C14.380113,0.377039548 14.4414915,0.49979661 14.476565,0.66639548 L15.8619661,6.54119774 L17.3788927,0.66639548 C17.4315028,0.491028249 17.4928814,0.377039548 17.5542599,0.324429379 C17.6244068,0.271819209 17.7383955,0.236745763 17.896226,0.236745763 L18.7116836,0.236745763 C18.8519774,0.236745763 18.9308927,0.306892655 18.9308927,0.455954802 C18.9308927,0.49979661 18.9221243,0.543638418 18.9133559,0.596248588 C18.9045876,0.648858757 18.8870508,0.71900565 18.8519774,0.815457627 L16.7388023,7.59340113 C16.6861921,7.76876836 16.6248136,7.88275706 16.5546667,7.93536723 C16.4845198,7.9879774 16.3705311,8.02305085 16.2214689,8.02305085 L15.4673898,8.02305085 C15.300791,8.02305085 15.1868023,7.99674576 15.1166554,7.93536723 C15.0465085,7.8739887 14.9851299,7.76 14.9500565,7.58463277 L13.5909605,1.92903955 L12.2406328,7.57586441 C12.196791,7.75123164 12.1441808,7.86522034 12.0740339,7.92659887 C12.003887,7.9879774 11.8811299,8.01428249 11.7232994,8.01428249 L10.9692203,8.01428249 Z M22.236565,8.25102825 C21.7806102,8.25102825 21.3246554,8.19841808 20.8862373,8.09319774 C20.4478192,7.9879774 20.1058531,7.8739887 19.8778757,7.74246328 C19.7375819,7.66354802 19.6411299,7.57586441 19.6060565,7.49694915 C19.5709831,7.4180339 19.5534463,7.33035028 19.5534463,7.25143503 L19.5534463,6.80424859 C19.5534463,6.62011299 19.6235932,6.53242938 19.7551186,6.53242938 C19.8077288,6.53242938 19.860339,6.54119774 19.9129492,6.55873446 C19.9655593,6.57627119 20.0444746,6.61134463 20.1321582,6.64641808 C20.4302825,6.7779435 20.7547119,6.88316384 21.096678,6.95331073 C21.4474124,7.02345763 21.7893785,7.05853107 22.140113,7.05853107 C22.6925198,7.05853107 23.1221695,6.9620791 23.4202938,6.76917514 C23.7184181,6.57627119 23.8762486,6.29568362 23.8762486,5.93618079 C23.8762486,5.69066667 23.7973333,5.48899435 23.6395028,5.32239548 C23.4816723,5.15579661 23.183548,5.00673446 22.7538983,4.86644068 L21.4824859,4.47186441 C20.8423955,4.27019209 20.368904,3.9720678 20.079548,3.57749153 C19.7901921,3.19168362 19.6411299,2.7620339 19.6411299,2.3060791 C19.6411299,1.93780791 19.7200452,1.61337853 19.8778757,1.33279096 C20.0357062,1.05220339 20.2461469,0.806689266 20.5091977,0.613785311 C20.7722486,0.412112994 21.0703729,0.263050847 21.4211073,0.157830508 C21.7718418,0.0526101695 22.140113,0.00876836158 22.5259209,0.00876836158 C22.7188249,0.00876836158 22.9204972,0.0175367232 23.1134011,0.0438418079 C23.3150734,0.0701468927 23.499209,0.105220339 23.6833446,0.140293785 C23.8587119,0.184135593 24.0253107,0.227977401 24.1831412,0.280587571 C24.3409718,0.33319774 24.4637288,0.38580791 24.5514124,0.438418079 C24.6741695,0.508564972 24.7618531,0.578711864 24.8144633,0.657627119 C24.8670734,0.727774011 24.8933785,0.824225989 24.8933785,0.946983051 L24.8933785,1.35909605 C24.8933785,1.54323164 24.8232316,1.63968362 24.6917062,1.63968362 C24.6215593,1.63968362 24.5075706,1.60461017 24.3585085,1.53446328 C23.8587119,1.30648588 23.2975367,1.19249718 22.6749831,1.19249718 C22.1751864,1.19249718 21.7806102,1.27141243 21.508791,1.4380113 C21.2369718,1.60461017 21.096678,1.85889266 21.096678,2.21839548 C21.096678,2.4639096 21.1843616,2.67435028 21.3597288,2.84094915 C21.535096,3.00754802 21.8595254,3.17414689 22.3242486,3.32320904 L23.5693559,3.71778531 C24.200678,3.91945763 24.6566328,4.2000452 24.928452,4.55954802 C25.2002712,4.91905085 25.3317966,5.33116384 25.3317966,5.78711864 C25.3317966,6.16415819 25.2528814,6.50612429 25.1038192,6.80424859 C24.9459887,7.10237288 24.735548,7.36542373 24.4637288,7.57586441 C24.1919096,7.79507345 23.8674802,7.95290395 23.4904407,8.06689266 C23.0958644,8.18964972 22.6837514,8.25102825 22.236565,8.25102825 Z" id="Shape" fill-rule="nonzero"></path>
            <g id="Group" transform="translate(0.000000, 9.820565)">
                <path d="M23.8937853,2.69188701 C21.0089944,4.82259887 16.8177175,5.95371751 13.2139209,5.95371751 C8.16334463,5.95371751 3.61256497,4.0860565 0.175367232,0.982056497 C-0.0964519774,0.736542373 0.149062147,0.403344633 0.473491525,0.596248588 C4.19127684,2.75326554 8.77712994,4.05975141 13.5208136,4.05975141 C16.7212655,4.05975141 20.2373785,3.39335593 23.472904,2.02549153 C23.9551638,1.80628249 24.3672768,2.34115254 23.8937853,2.69188701 Z" id="Path"></path>
                <path d="M25.0950508,1.3240226 C24.7267797,0.850531073 22.6574463,1.0960452 21.7192316,1.2100339 C21.4386441,1.24510734 21.3948023,0.99959322 21.6490847,0.815457627 C23.2975367,-0.341966102 26.0069605,-0.00876836158 26.3226215,0.377039548 C26.6382825,0.771615819 26.2349379,3.48103955 24.6917062,4.77875706 C24.4549605,4.98042938 24.2269831,4.87520904 24.3322034,4.61215819 C24.6829379,3.7440904 25.463322,1.78874576 25.0950508,1.3240226 Z" id="Path"></path>
            </g>
        </g>
    </g>
</svg>