<?xml version="1.0" encoding="UTF-8"?>
<svg width="16px" height="16px" viewBox="0 0 16 16" version="1.1" xmlns="http://www.w3.org/2000/svg" xmlns:xlink="http://www.w3.org/1999/xlink">
    <!-- Generator: Sketch 64 (93537) - https://sketch.com -->
    <title>AWS_16</title>
    <desc>Created with Sketch.</desc>
    <g id="AWS_16" stroke="none" stroke-width="1" fill="none" fill-rule="evenodd">
        <rect fill="#1B2532" x="0" y="0" width="16" height="16"></rect>
        <g id="aws-full" transform="translate(1.400000, 4.280000)" fill="#FFFFFF">
            <path d="M3.7440904,2.86725424 C3.7440904,3.02946893 3.76162712,3.16099435 3.79231638,3.25744633 C3.82738983,3.35389831 3.87123164,3.45911864 3.93261017,3.57310734 C3.95453107,3.60818079 3.96329944,3.64325424 3.96329944,3.6739435 C3.96329944,3.71778531 3.93699435,3.76162712 3.88,3.80546893 L3.60379661,3.98960452 C3.56433898,4.0159096 3.52488136,4.02906215 3.48980791,4.02906215 C3.4459661,4.02906215 3.40212429,4.00714124 3.35828249,3.96768362 C3.29690395,3.9019209 3.24429379,3.83177401 3.20045198,3.76162712 C3.15661017,3.68709605 3.11276836,3.60379661 3.06454237,3.50296045 C2.72257627,3.90630508 2.29292655,4.1079774 1.77559322,4.1079774 C1.40732203,4.1079774 1.11358192,4.00275706 0.898757062,3.79231638 C0.683932203,3.58187571 0.574327684,3.30128814 0.574327684,2.95055367 C0.574327684,2.57789831 0.705853107,2.27538983 0.973288136,2.04741243 C1.24072316,1.81943503 1.59584181,1.70544633 2.04741243,1.70544633 C2.19647458,1.70544633 2.3499209,1.71859887 2.51213559,1.74051977 C2.67435028,1.76244068 2.84094915,1.79751412 3.01631638,1.83697175 L3.01631638,1.51692655 C3.01631638,1.18372881 2.94616949,0.951367232 2.81025989,0.815457627 C2.6699661,0.679548023 2.43322034,0.613785311 2.09563842,0.613785311 C1.94219209,0.613785311 1.78436158,0.631322034 1.62214689,0.670779661 C1.4599322,0.710237288 1.30210169,0.758463277 1.14865537,0.819841808 C1.07850847,0.850531073 1.02589831,0.868067797 0.99520904,0.876836158 C0.964519774,0.88560452 0.94259887,0.889988701 0.925062147,0.889988701 C0.863683616,0.889988701 0.83299435,0.846146893 0.83299435,0.754079096 L0.83299435,0.539254237 C0.83299435,0.469107345 0.841762712,0.416497175 0.863683616,0.38580791 C0.88560452,0.355118644 0.925062147,0.324429379 0.986440678,0.293740113 C1.13988701,0.214824859 1.3240226,0.149062147 1.53884746,0.0964519774 C1.75367232,0.0394576271 1.98164972,0.0131525424 2.22277966,0.0131525424 C2.74449718,0.0131525424 3.1259209,0.131525424 3.37143503,0.368271186 C3.61256497,0.605016949 3.73532203,0.964519774 3.73532203,1.44677966 L3.73532203,2.86725424 L3.7440904,2.86725424 Z M1.96411299,3.53364972 C2.10879096,3.53364972 2.25785311,3.50734463 2.41568362,3.45473446 C2.57351412,3.40212429 2.71380791,3.30567232 2.83218079,3.17414689 C2.90232768,3.09084746 2.95493785,2.99877966 2.98124294,2.89355932 C3.00754802,2.78833898 3.02508475,2.66119774 3.02508475,2.51213559 L3.02508475,2.328 C2.8979435,2.29731073 2.7620339,2.27100565 2.62174011,2.25346893 C2.48144633,2.2359322 2.34553672,2.22716384 2.20962712,2.22716384 C1.91588701,2.22716384 1.70106215,2.28415819 1.55638418,2.40253107 C1.41170621,2.52090395 1.34155932,2.68750282 1.34155932,2.90671186 C1.34155932,3.11276836 1.39416949,3.26621469 1.50377401,3.37143503 C1.60899435,3.48103955 1.76244068,3.53364972 1.96411299,3.53364972 Z M5.48461017,4.00714124 C5.40569492,4.00714124 5.35308475,3.9939887 5.3180113,3.96329944 C5.28293785,3.93699435 5.25224859,3.87561582 5.2259435,3.79231638 L4.19566102,0.403344633 C4.16935593,0.315661017 4.15620339,0.258666667 4.15620339,0.227977401 C4.15620339,0.157830508 4.19127684,0.118372881 4.26142373,0.118372881 L4.69107345,0.118372881 C4.77437288,0.118372881 4.83136723,0.131525424 4.8620565,0.162214689 C4.89712994,0.188519774 4.92343503,0.249898305 4.94974011,0.33319774 L5.68628249,3.23552542 L6.37021469,0.33319774 C6.39213559,0.245514124 6.41844068,0.188519774 6.45351412,0.162214689 C6.48858757,0.135909605 6.5499661,0.118372881 6.62888136,0.118372881 L6.97961582,0.118372881 C7.06291525,0.118372881 7.1199096,0.131525424 7.15498305,0.162214689 C7.1900565,0.188519774 7.22074576,0.249898305 7.23828249,0.33319774 L7.93098305,3.27059887 L8.68944633,0.33319774 C8.71575141,0.245514124 8.74644068,0.188519774 8.77712994,0.162214689 C8.81220339,0.135909605 8.86919774,0.118372881 8.94811299,0.118372881 L9.35584181,0.118372881 C9.4259887,0.118372881 9.46544633,0.153446328 9.46544633,0.227977401 C9.46544633,0.249898305 9.46106215,0.271819209 9.45667797,0.298124294 C9.45229379,0.324429379 9.44352542,0.359502825 9.4259887,0.407728814 L8.36940113,3.79670056 C8.34309605,3.88438418 8.31240678,3.94137853 8.27733333,3.96768362 C8.24225989,3.9939887 8.18526554,4.01152542 8.11073446,4.01152542 L7.73369492,4.01152542 C7.65039548,4.01152542 7.59340113,3.99837288 7.55832768,3.96768362 C7.52325424,3.93699435 7.49256497,3.88 7.47502825,3.79231638 L6.79548023,0.964519774 L6.12031638,3.7879322 C6.09839548,3.87561582 6.0720904,3.93261017 6.03701695,3.96329944 C6.0019435,3.9939887 5.94056497,4.00714124 5.86164972,4.00714124 L5.48461017,4.00714124 Z M11.1182825,4.12551412 C10.8903051,4.12551412 10.6623277,4.09920904 10.4431186,4.04659887 C10.2239096,3.9939887 10.0529266,3.93699435 9.93893785,3.87123164 C9.86879096,3.83177401 9.82056497,3.7879322 9.80302825,3.74847458 C9.78549153,3.70901695 9.77672316,3.66517514 9.77672316,3.62571751 L9.77672316,3.40212429 C9.77672316,3.3100565 9.81179661,3.26621469 9.87755932,3.26621469 C9.90386441,3.26621469 9.93016949,3.27059887 9.95647458,3.27936723 C9.98277966,3.28813559 10.0222373,3.30567232 10.0660791,3.32320904 C10.2151412,3.38897175 10.3773559,3.44158192 10.548339,3.47665537 C10.7237062,3.51172881 10.8946893,3.52926554 11.0700565,3.52926554 C11.3462599,3.52926554 11.5610847,3.48103955 11.7101469,3.38458757 C11.859209,3.28813559 11.9381243,3.14784181 11.9381243,2.9680904 C11.9381243,2.84533333 11.8986667,2.74449718 11.8197514,2.66119774 C11.7408362,2.57789831 11.591774,2.50336723 11.3769492,2.43322034 L10.7412429,2.2359322 C10.4211977,2.13509605 10.184452,1.9860339 10.039774,1.78874576 C9.89509605,1.59584181 9.82056497,1.38101695 9.82056497,1.15303955 C9.82056497,0.968903955 9.8600226,0.806689266 9.93893785,0.66639548 C10.0178531,0.526101695 10.1230734,0.403344633 10.2545989,0.306892655 C10.3861243,0.206056497 10.5351864,0.131525424 10.7105537,0.0789152542 C10.8859209,0.0263050847 11.0700565,0.00438418079 11.2629605,0.00438418079 C11.3594124,0.00438418079 11.4602486,0.00876836158 11.5567006,0.021920904 C11.6575367,0.0350734463 11.7496045,0.0526101695 11.8416723,0.0701468927 C11.9293559,0.0920677966 12.0126554,0.113988701 12.0915706,0.140293785 C12.1704859,0.16659887 12.2318644,0.192903955 12.2757062,0.21920904 C12.3370847,0.254282486 12.3809266,0.289355932 12.4072316,0.328813559 C12.4335367,0.363887006 12.4466893,0.412112994 12.4466893,0.473491525 L12.4466893,0.679548023 C12.4466893,0.771615819 12.4116158,0.819841808 12.3458531,0.819841808 C12.3107797,0.819841808 12.2537853,0.802305085 12.1792542,0.767231638 C11.9293559,0.653242938 11.6487684,0.596248588 11.3374915,0.596248588 C11.0875932,0.596248588 10.8903051,0.635706215 10.7543955,0.71900565 C10.6184859,0.802305085 10.548339,0.929446328 10.548339,1.10919774 C10.548339,1.2319548 10.5921808,1.33717514 10.6798644,1.42047458 C10.767548,1.50377401 10.9297627,1.58707345 11.1621243,1.66160452 L11.784678,1.85889266 C12.100339,1.95972881 12.3283164,2.1000226 12.464226,2.27977401 C12.6001356,2.45952542 12.6658983,2.66558192 12.6658983,2.89355932 C12.6658983,3.0820791 12.6264407,3.25306215 12.5519096,3.40212429 C12.4729944,3.55118644 12.367774,3.68271186 12.2318644,3.7879322 C12.0959548,3.89753672 11.9337401,3.97645198 11.7452203,4.03344633 C11.5479322,4.09482486 11.3418757,4.12551412 11.1182825,4.12551412 Z" id="Shape" fill-rule="nonzero"></path>
            <g id="Group" transform="translate(0.000000, 4.910282)">
                <path d="M11.9468927,1.3459435 C10.5044972,2.41129944 8.40885876,2.97685876 6.60696045,2.97685876 C4.08167232,2.97685876 1.80628249,2.04302825 0.0876836158,0.491028249 C-0.0482259887,0.368271186 0.0745310734,0.201672316 0.236745763,0.298124294 C2.09563842,1.37663277 4.38856497,2.02987571 6.76040678,2.02987571 C8.36063277,2.02987571 10.1186893,1.69667797 11.736452,1.01274576 C11.9775819,0.903141243 12.1836384,1.17057627 11.9468927,1.3459435 Z" id="Path"></path>
                <path d="M12.5475254,0.662011299 C12.3633898,0.425265537 11.3287232,0.548022599 10.8596158,0.605016949 C10.719322,0.622553672 10.6974011,0.49979661 10.8245424,0.407728814 C11.6487684,-0.170983051 13.0034802,-0.00438418079 13.1613107,0.188519774 C13.3191412,0.38580791 13.1174689,1.74051977 12.3458531,2.38937853 C12.2274802,2.49021469 12.1134915,2.43760452 12.1661017,2.3060791 C12.3414689,1.8720452 12.731661,0.894372881 12.5475254,0.662011299 Z" id="Path"></path>
            </g>
        </g>
    </g>
</svg>