<?xml version="1.0" encoding="UTF-8"?>
<svg width="48px" height="48px" viewBox="0 0 48 48" version="1.1" xmlns="http://www.w3.org/2000/svg" xmlns:xlink="http://www.w3.org/1999/xlink">
    <!-- Generator: Sketch 64 (93537) - https://sketch.com -->
    <title>AWS_48</title>
    <desc>Created with Sketch.</desc>
    <g id="AWS_48" stroke="none" stroke-width="1" fill="none" fill-rule="evenodd">
        <rect fill="#1B2532" x="0" y="0" width="48" height="48"></rect>
        <g id="aws-full" transform="translate(4.200000, 12.840000)" fill="#FFFFFF">
            <path d="M11.2322712,8.60176271 C11.2322712,9.08840678 11.2848814,9.48298305 11.3769492,9.77233898 C11.4821695,10.0616949 11.6136949,10.3773559 11.7978305,10.719322 C11.8635932,10.8245424 11.8898983,10.9297627 11.8898983,11.0218305 C11.8898983,11.1533559 11.8109831,11.2848814 11.64,11.4164068 L10.8113898,11.9688136 C10.6930169,12.0477288 10.5746441,12.0871864 10.4694237,12.0871864 C10.3378983,12.0871864 10.2063729,12.0214237 10.0748475,11.9030508 C9.89071186,11.7057627 9.73288136,11.495322 9.60135593,11.2848814 C9.46983051,11.0612881 9.33830508,10.8113898 9.19362712,10.5088814 C8.16772881,11.7189153 6.87877966,12.3239322 5.32677966,12.3239322 C4.2219661,12.3239322 3.34074576,12.0082712 2.69627119,11.3769492 C2.05179661,10.7456271 1.72298305,9.90386441 1.72298305,8.85166102 C1.72298305,7.73369492 2.11755932,6.82616949 2.91986441,6.14223729 C3.72216949,5.45830508 4.78752542,5.11633898 6.14223729,5.11633898 C6.58942373,5.11633898 7.04976271,5.15579661 7.53640678,5.22155932 C8.02305085,5.28732203 8.52284746,5.39254237 9.04894915,5.51091525 L9.04894915,4.55077966 C9.04894915,3.55118644 8.83850847,2.85410169 8.43077966,2.44637288 C8.00989831,2.03864407 7.29966102,1.84135593 6.28691525,1.84135593 C5.82657627,1.84135593 5.35308475,1.8939661 4.86644068,2.01233898 C4.37979661,2.13071186 3.90630508,2.27538983 3.4459661,2.45952542 C3.23552542,2.55159322 3.07769492,2.60420339 2.98562712,2.63050847 C2.89355932,2.65681356 2.82779661,2.6699661 2.77518644,2.6699661 C2.59105085,2.6699661 2.49898305,2.53844068 2.49898305,2.26223729 L2.49898305,1.61776271 C2.49898305,1.40732203 2.52528814,1.24949153 2.59105085,1.15742373 C2.65681356,1.06535593 2.77518644,0.973288136 2.95932203,0.881220339 C3.41966102,0.644474576 3.9720678,0.447186441 4.61654237,0.289355932 C5.26101695,0.118372881 5.94494915,0.0394576271 6.66833898,0.0394576271 C8.23349153,0.0394576271 9.37776271,0.394576271 10.1143051,1.10481356 C10.8376949,1.81505085 11.2059661,2.89355932 11.2059661,4.34033898 L11.2059661,8.60176271 L11.2322712,8.60176271 Z M5.89233898,10.6009492 C6.32637288,10.6009492 6.77355932,10.5220339 7.24705085,10.3642034 C7.72054237,10.2063729 8.14142373,9.91701695 8.49654237,9.52244068 C8.70698305,9.27254237 8.86481356,8.99633898 8.94372881,8.68067797 C9.02264407,8.36501695 9.07525424,7.98359322 9.07525424,7.53640678 L9.07525424,6.984 C8.69383051,6.8919322 8.28610169,6.81301695 7.86522034,6.76040678 C7.44433898,6.70779661 7.03661017,6.68149153 6.62888136,6.68149153 C5.74766102,6.68149153 5.10318644,6.85247458 4.66915254,7.20759322 C4.23511864,7.56271186 4.02467797,8.06250847 4.02467797,8.72013559 C4.02467797,9.33830508 4.18250847,9.79864407 4.51132203,10.1143051 C4.82698305,10.4431186 5.28732203,10.6009492 5.89233898,10.6009492 Z M16.4538305,12.0214237 C16.2170847,12.0214237 16.0592542,11.9819661 15.9540339,11.8898983 C15.8488136,11.8109831 15.7567458,11.6268475 15.6778305,11.3769492 L12.5869831,1.2100339 C12.5080678,0.946983051 12.4686102,0.776 12.4686102,0.683932203 C12.4686102,0.473491525 12.5738305,0.355118644 12.7842712,0.355118644 L14.0732203,0.355118644 C14.3231186,0.355118644 14.4941017,0.394576271 14.5861695,0.486644068 C14.6913898,0.565559322 14.7703051,0.749694915 14.8492203,0.99959322 L17.0588475,9.70657627 L19.1106441,0.99959322 C19.1764068,0.736542373 19.255322,0.565559322 19.3605424,0.486644068 C19.4657627,0.407728814 19.6498983,0.355118644 19.8866441,0.355118644 L20.9388475,0.355118644 C21.1887458,0.355118644 21.3597288,0.394576271 21.4649492,0.486644068 C21.5701695,0.565559322 21.6622373,0.749694915 21.7148475,0.99959322 L23.7929492,9.81179661 L26.068339,0.99959322 C26.1472542,0.736542373 26.239322,0.565559322 26.3313898,0.486644068 C26.4366102,0.407728814 26.6075932,0.355118644 26.844339,0.355118644 L28.0675254,0.355118644 C28.2779661,0.355118644 28.396339,0.460338983 28.396339,0.683932203 C28.396339,0.749694915 28.3831864,0.815457627 28.3700339,0.894372881 C28.3568814,0.973288136 28.3305763,1.07850847 28.2779661,1.22318644 L25.1082034,11.3901017 C25.0292881,11.6531525 24.9372203,11.8241356 24.832,11.9030508 C24.7267797,11.9819661 24.5557966,12.0345763 24.3322034,12.0345763 L23.2010847,12.0345763 C22.9511864,12.0345763 22.7802034,11.9951186 22.6749831,11.9030508 C22.5697627,11.8109831 22.4776949,11.64 22.4250847,11.3769492 L20.3864407,2.89355932 L18.3609492,11.3637966 C18.2951864,11.6268475 18.2162712,11.7978305 18.1110508,11.8898983 C18.0058305,11.9819661 17.8216949,12.0214237 17.5849492,12.0214237 L16.4538305,12.0214237 Z M33.3548475,12.3765424 C32.6709153,12.3765424 31.9869831,12.2976271 31.3293559,12.1397966 C30.6717288,11.9819661 30.1587797,11.8109831 29.8168136,11.6136949 C29.6063729,11.495322 29.4616949,11.3637966 29.4090847,11.2454237 C29.3564746,11.1270508 29.3301695,10.9955254 29.3301695,10.8771525 L29.3301695,10.2063729 C29.3301695,9.93016949 29.4353898,9.79864407 29.632678,9.79864407 C29.7115932,9.79864407 29.7905085,9.81179661 29.8694237,9.83810169 C29.948339,9.86440678 30.0667119,9.91701695 30.1982373,9.96962712 C30.6454237,10.1669153 31.1320678,10.3247458 31.6450169,10.4299661 C32.1711186,10.5351864 32.6840678,10.5877966 33.2101695,10.5877966 C34.0387797,10.5877966 34.6832542,10.4431186 35.1304407,10.1537627 C35.5776271,9.86440678 35.8143729,9.44352542 35.8143729,8.90427119 C35.8143729,8.536 35.696,8.23349153 35.4592542,7.98359322 C35.2225085,7.73369492 34.775322,7.51010169 34.1308475,7.29966102 L32.2237288,6.70779661 C31.2635932,6.40528814 30.5533559,5.95810169 30.119322,5.36623729 C29.6852881,4.78752542 29.4616949,4.14305085 29.4616949,3.45911864 C29.4616949,2.90671186 29.5800678,2.4200678 29.8168136,1.99918644 C30.0535593,1.57830508 30.3692203,1.2100339 30.7637966,0.920677966 C31.1583729,0.618169492 31.6055593,0.394576271 32.131661,0.236745763 C32.6577627,0.0789152542 33.2101695,0.0131525424 33.7888814,0.0131525424 C34.0782373,0.0131525424 34.3807458,0.0263050847 34.6701017,0.0657627119 C34.9726102,0.105220339 35.2488136,0.157830508 35.5250169,0.210440678 C35.7880678,0.27620339 36.0379661,0.341966102 36.2747119,0.420881356 C36.5114576,0.49979661 36.6955932,0.578711864 36.8271186,0.657627119 C37.0112542,0.762847458 37.1427797,0.868067797 37.2216949,0.986440678 C37.3006102,1.09166102 37.3400678,1.23633898 37.3400678,1.42047458 L37.3400678,2.03864407 C37.3400678,2.31484746 37.2348475,2.45952542 37.0375593,2.45952542 C36.932339,2.45952542 36.7613559,2.40691525 36.5377627,2.30169492 C35.7880678,1.95972881 34.9463051,1.78874576 34.0124746,1.78874576 C33.2627797,1.78874576 32.6709153,1.90711864 32.2631864,2.15701695 C31.8554576,2.40691525 31.6450169,2.78833898 31.6450169,3.32759322 C31.6450169,3.69586441 31.7765424,4.01152542 32.0395932,4.26142373 C32.3026441,4.51132203 32.7892881,4.76122034 33.4863729,4.98481356 L35.3540339,5.57667797 C36.3010169,5.87918644 36.9849492,6.3000678 37.392678,6.83932203 C37.8004068,7.37857627 37.9976949,7.99674576 37.9976949,8.68067797 C37.9976949,9.24623729 37.879322,9.75918644 37.6557288,10.2063729 C37.4189831,10.6535593 37.103322,11.0481356 36.6955932,11.3637966 C36.2878644,11.6926102 35.8012203,11.9293559 35.235661,12.100339 C34.6437966,12.2844746 34.0256271,12.3765424 33.3548475,12.3765424 Z" id="Shape" fill-rule="nonzero"></path>
            <g id="Group" transform="translate(0.000000, 14.730847)">
                <path d="M35.840678,4.03783051 C31.5134915,7.23389831 25.2265763,8.93057627 19.8208814,8.93057627 C12.2450169,8.93057627 5.41884746,6.12908475 0.263050847,1.47308475 C-0.144677966,1.10481356 0.22359322,0.605016949 0.710237288,0.894372881 C6.28691525,4.12989831 13.1656949,6.08962712 20.2812203,6.08962712 C25.0818983,6.08962712 30.3560678,5.0900339 35.2093559,3.03823729 C35.9327458,2.70942373 36.5509153,3.51172881 35.840678,4.03783051 Z" id="Path"></path>
                <path d="M37.6425763,1.9860339 C37.0901695,1.27579661 33.9861695,1.6440678 32.5788475,1.81505085 C32.1579661,1.86766102 32.0922034,1.49938983 32.4736271,1.22318644 C34.9463051,-0.512949153 39.0104407,-0.0131525424 39.4839322,0.565559322 C39.9574237,1.15742373 39.3524068,5.22155932 37.0375593,7.16813559 C36.6824407,7.47064407 36.3404746,7.31281356 36.4983051,6.91823729 C37.0244068,5.61613559 38.1949831,2.68311864 37.6425763,1.9860339 Z" id="Path"></path>
            </g>
        </g>
    </g>
</svg>