<?xml version="1.0" encoding="UTF-8"?>
<svg width="64px" height="64px" viewBox="0 0 64 64" version="1.1" xmlns="http://www.w3.org/2000/svg" xmlns:xlink="http://www.w3.org/1999/xlink">
    <!-- Generator: Sketch 64 (93537) - https://sketch.com -->
    <title>AWS_64</title>
    <desc>Created with Sketch.</desc>
    <g id="AWS_64" stroke="none" stroke-width="1" fill="none" fill-rule="evenodd">
        <rect fill="#1B2532" x="0" y="0" width="64" height="64"></rect>
        <g id="aws-full" transform="translate(5.600000, 17.120000)" fill="#FFFFFF">
            <path d="M14.9763616,11.4690169 C14.9763616,12.1178757 15.0465085,12.6439774 15.1692655,13.0297853 C15.3095593,13.4155932 15.4849266,13.8364746 15.7304407,14.2924294 C15.8181243,14.4327232 15.8531977,14.5730169 15.8531977,14.695774 C15.8531977,14.8711412 15.7479774,15.0465085 15.52,15.2218757 L14.4151864,15.9584181 C14.2573559,16.0636384 14.0995254,16.1162486 13.9592316,16.1162486 C13.7838644,16.1162486 13.6084972,16.028565 13.4331299,15.8707345 C13.1876158,15.6076836 12.9771751,15.327096 12.8018079,15.0465085 C12.6264407,14.7483842 12.4510734,14.4151864 12.2581695,14.0118418 C10.8903051,15.6252203 9.17170621,16.4319096 7.10237288,16.4319096 C5.62928814,16.4319096 4.45432768,16.0110282 3.59502825,15.1692655 C2.73572881,14.3275028 2.29731073,13.2051525 2.29731073,11.8022147 C2.29731073,10.3115932 2.82341243,9.10155932 3.89315254,8.18964972 C4.96289266,7.27774011 6.38336723,6.82178531 8.18964972,6.82178531 C8.78589831,6.82178531 9.39968362,6.87439548 10.0485424,6.9620791 C10.6974011,7.04976271 11.3637966,7.1900565 12.0652655,7.34788701 L12.0652655,6.06770621 C12.0652655,4.73491525 11.784678,3.80546893 11.2410395,3.26183051 C10.6798644,2.71819209 9.73288136,2.45514124 8.38255367,2.45514124 C7.76876836,2.45514124 7.13744633,2.52528814 6.48858757,2.68311864 C5.83972881,2.84094915 5.20840678,3.03385311 4.59462147,3.27936723 C4.3140339,3.40212429 4.10359322,3.47227119 3.98083616,3.50734463 C3.8580791,3.54241808 3.77039548,3.5599548 3.70024859,3.5599548 C3.45473446,3.5599548 3.3319774,3.38458757 3.3319774,3.01631638 L3.3319774,2.15701695 C3.3319774,1.87642938 3.36705085,1.6659887 3.45473446,1.54323164 C3.54241808,1.42047458 3.70024859,1.29771751 3.94576271,1.17496045 C4.55954802,0.859299435 5.2960904,0.596248588 6.15538983,0.38580791 C7.01468927,0.157830508 7.92659887,0.0526101695 8.89111864,0.0526101695 C10.9779887,0.0526101695 12.5036836,0.526101695 13.4857401,1.47308475 C14.4502599,2.4200678 14.9412881,3.8580791 14.9412881,5.78711864 L14.9412881,11.4690169 L14.9763616,11.4690169 Z M7.85645198,14.1345989 C8.43516384,14.1345989 9.03141243,14.0293785 9.66273446,13.8189379 C10.2940565,13.6084972 10.8552316,13.2226893 11.3287232,12.6965876 C11.6093107,12.3633898 11.8197514,11.9951186 11.9249718,11.5742373 C12.0301921,11.1533559 12.100339,10.644791 12.100339,10.0485424 L12.100339,9.312 C11.591774,9.18924294 11.0481356,9.0840226 10.4869605,9.01387571 C9.92578531,8.94372881 9.38214689,8.90865537 8.83850847,8.90865537 C7.66354802,8.90865537 6.80424859,9.13663277 6.22553672,9.61012429 C5.64682486,10.0836158 5.36623729,10.7500113 5.36623729,11.6268475 C5.36623729,12.4510734 5.57667797,13.0648588 6.01509605,13.4857401 C6.4359774,13.9241582 7.04976271,14.1345989 7.85645198,14.1345989 Z M21.9384407,16.028565 C21.6227797,16.028565 21.412339,15.9759548 21.2720452,15.8531977 C21.1317514,15.7479774 21.0089944,15.5024633 20.903774,15.1692655 L16.7826441,1.61337853 C16.6774237,1.26264407 16.6248136,1.03466667 16.6248136,0.911909605 C16.6248136,0.631322034 16.7651073,0.473491525 17.0456949,0.473491525 L18.7642938,0.473491525 C19.0974915,0.473491525 19.3254689,0.526101695 19.448226,0.648858757 C19.5885198,0.754079096 19.6937401,0.99959322 19.7989605,1.33279096 L22.7451299,12.9421017 L25.4808588,1.33279096 C25.5685424,0.982056497 25.6737627,0.754079096 25.8140565,0.648858757 C25.9543503,0.543638418 26.1998644,0.473491525 26.5155254,0.473491525 L27.9184633,0.473491525 C28.251661,0.473491525 28.4796384,0.526101695 28.6199322,0.648858757 C28.760226,0.754079096 28.8829831,0.99959322 28.9531299,1.33279096 L31.7239322,13.0823955 L34.7577853,1.33279096 C34.8630056,0.982056497 34.9857627,0.754079096 35.1085198,0.648858757 C35.2488136,0.543638418 35.476791,0.473491525 35.792452,0.473491525 L37.4233672,0.473491525 C37.7039548,0.473491525 37.8617853,0.613785311 37.8617853,0.911909605 C37.8617853,0.99959322 37.8442486,1.08727684 37.8267119,1.19249718 C37.8091751,1.29771751 37.7741017,1.4380113 37.7039548,1.63091525 L33.4776045,15.1868023 C33.3723842,15.5375367 33.2496271,15.7655141 33.1093333,15.8707345 C32.9690395,15.9759548 32.7410621,16.0461017 32.4429379,16.0461017 L30.9347797,16.0461017 C30.6015819,16.0461017 30.3736045,15.9934915 30.2333107,15.8707345 C30.0930169,15.7479774 29.9702599,15.52 29.900113,15.1692655 L27.1819209,3.8580791 L24.4812655,15.1517288 C24.3935819,15.5024633 24.2883616,15.7304407 24.1480678,15.8531977 C24.007774,15.9759548 23.7622599,16.028565 23.4465989,16.028565 L21.9384407,16.028565 Z M44.4731299,16.5020565 C43.5612203,16.5020565 42.6493107,16.3968362 41.7724746,16.1863955 C40.8956384,15.9759548 40.2117062,15.7479774 39.7557514,15.4849266 C39.4751638,15.327096 39.2822599,15.1517288 39.212113,14.9938983 C39.1419661,14.8360678 39.1068927,14.6607006 39.1068927,14.5028701 L39.1068927,13.6084972 C39.1068927,13.240226 39.2471864,13.0648588 39.5102373,13.0648588 C39.6154576,13.0648588 39.720678,13.0823955 39.8258983,13.1174689 C39.9311186,13.1525424 40.0889492,13.2226893 40.2643164,13.2928362 C40.860565,13.555887 41.5094237,13.7663277 42.1933559,13.9066215 C42.8948249,14.0469153 43.5787571,14.1170621 44.280226,14.1170621 C45.3850395,14.1170621 46.244339,13.9241582 46.8405876,13.5383503 C47.4368362,13.1525424 47.7524972,12.5913672 47.7524972,11.8723616 C47.7524972,11.3813333 47.5946667,10.9779887 47.2790056,10.644791 C46.9633446,10.3115932 46.367096,10.0134689 45.5077966,9.73288136 L42.9649718,8.94372881 C41.684791,8.54038418 40.7378079,7.94413559 40.159096,7.15498305 C39.5803842,6.38336723 39.2822599,5.5240678 39.2822599,4.61215819 C39.2822599,3.87561582 39.4400904,3.22675706 39.7557514,2.66558192 C40.0714124,2.10440678 40.4922938,1.61337853 41.0183955,1.22757062 C41.5444972,0.824225989 42.1407458,0.526101695 42.8422147,0.315661017 C43.5436836,0.105220339 44.280226,0.0175367232 45.0518418,0.0175367232 C45.4376497,0.0175367232 45.8409944,0.0350734463 46.2268023,0.0876836158 C46.6301469,0.140293785 46.9984181,0.210440678 47.3666893,0.280587571 C47.7174237,0.368271186 48.0506215,0.455954802 48.3662825,0.561175141 C48.6819435,0.66639548 48.9274576,0.771615819 49.1028249,0.876836158 C49.348339,1.01712994 49.5237062,1.15742373 49.6289266,1.31525424 C49.7341469,1.45554802 49.7867571,1.64845198 49.7867571,1.8939661 L49.7867571,2.71819209 C49.7867571,3.08646328 49.6464633,3.27936723 49.3834124,3.27936723 C49.2431186,3.27936723 49.0151412,3.20922034 48.7170169,3.06892655 C47.7174237,2.61297175 46.5950734,2.38499435 45.3499661,2.38499435 C44.3503729,2.38499435 43.5612203,2.54282486 43.0175819,2.8760226 C42.4739435,3.20922034 42.1933559,3.71778531 42.1933559,4.43679096 C42.1933559,4.92781921 42.3687232,5.34870056 42.7194576,5.68189831 C43.0701921,6.01509605 43.7190508,6.34829379 44.6484972,6.64641808 L47.1387119,7.43557062 C48.4013559,7.83891525 49.3132655,8.4000904 49.856904,9.11909605 C50.4005424,9.83810169 50.6635932,10.6623277 50.6635932,11.5742373 C50.6635932,12.3283164 50.5057627,13.0122486 50.2076384,13.6084972 C49.8919774,14.2047458 49.471096,14.7308475 48.9274576,15.1517288 C48.3838192,15.5901469 47.7349605,15.9058079 46.9808814,16.1337853 C46.1917288,16.3792994 45.3675028,16.5020565 44.4731299,16.5020565 Z" id="Shape" fill-rule="nonzero"></path>
            <g id="Group" transform="translate(0.000000, 19.641130)">
                <path d="M47.7875706,5.38377401 C42.0179887,9.64519774 33.635435,11.907435 26.4278418,11.907435 C16.3266893,11.907435 7.22512994,8.17211299 0.350734463,1.96411299 C-0.192903955,1.47308475 0.298124294,0.806689266 0.946983051,1.19249718 C8.38255367,5.50653107 17.5542599,8.11950282 27.0416271,8.11950282 C33.4425311,8.11950282 40.4747571,6.78671186 46.9458079,4.05098305 C47.9103277,3.61256497 48.7345537,4.68230508 47.7875706,5.38377401 Z" id="Path"></path>
                <path d="M50.1901017,2.6480452 C49.4535593,1.70106215 45.3148927,2.1920904 43.4384633,2.4200678 C42.8772881,2.49021469 42.7896045,1.99918644 43.2981695,1.63091525 C46.5950734,-0.683932203 52.0139209,-0.0175367232 52.6452429,0.754079096 C53.276565,1.54323164 52.4698757,6.9620791 49.3834124,9.55751412 C48.9099209,9.96085876 48.4539661,9.75041808 48.6644068,9.22431638 C49.3658757,7.48818079 50.9266441,3.57749153 50.1901017,2.6480452 Z" id="Path"></path>
            </g>
        </g>
    </g>
</svg>