<?xml version="1.0" encoding="UTF-8"?>
<svg width="80px" height="80px" viewBox="0 0 80 80" version="1.1" xmlns="http://www.w3.org/2000/svg" xmlns:xlink="http://www.w3.org/1999/xlink">
    <!-- Generator: Sketch 64 (93537) - https://sketch.com -->
    <title>AWS_80</title>
    <desc>Created with Sketch.</desc>
    <g id="AWS_80" stroke="none" stroke-width="1" fill="none" fill-rule="evenodd">
        <rect fill="#1B2532" x="0" y="0" width="80" height="80"></rect>
        <g id="aws-full" transform="translate(7.000000, 21.400000)" fill="#FFFFFF">
            <path d="M18.720452,14.3362712 C18.720452,15.1473446 18.8081356,15.8049718 18.9615819,16.2872316 C19.1369492,16.7694915 19.3561582,17.2955932 19.6630508,17.8655367 C19.7726554,18.040904 19.8164972,18.2162712 19.8164972,18.3697175 C19.8164972,18.5889266 19.6849718,18.8081356 19.4,19.0273446 L18.0189831,19.9480226 C17.8216949,20.079548 17.6244068,20.1453107 17.4490395,20.1453107 C17.2298305,20.1453107 17.0106215,20.0357062 16.7914124,19.8384181 C16.4845198,19.5096045 16.2214689,19.1588701 16.0022599,18.8081356 C15.7830508,18.4354802 15.5638418,18.0189831 15.3227119,17.5148023 C13.6128814,19.5315254 11.4646328,20.539887 8.8779661,20.539887 C7.03661017,20.539887 5.5679096,20.0137853 4.49378531,18.9615819 C3.41966102,17.9093785 2.87163842,16.5064407 2.87163842,14.7527684 C2.87163842,12.8894915 3.52926554,11.3769492 4.86644068,10.2370621 C6.20361582,9.09717514 7.97920904,8.52723164 10.2370621,8.52723164 C10.9823729,8.52723164 11.7496045,8.59299435 12.560678,8.70259887 C13.3717514,8.81220339 14.2047458,8.98757062 15.0815819,9.18485876 L15.0815819,7.58463277 C15.0815819,5.91864407 14.7308475,4.75683616 14.0512994,4.07728814 C13.3498305,3.39774011 12.1661017,3.06892655 10.4781921,3.06892655 C9.71096045,3.06892655 8.92180791,3.15661017 8.11073446,3.35389831 C7.29966102,3.55118644 6.51050847,3.79231638 5.74327684,4.09920904 C5.39254237,4.25265537 5.12949153,4.34033898 4.9760452,4.38418079 C4.82259887,4.4280226 4.71299435,4.4499435 4.62531073,4.4499435 C4.31841808,4.4499435 4.16497175,4.23073446 4.16497175,3.77039548 L4.16497175,2.69627119 C4.16497175,2.34553672 4.20881356,2.08248588 4.31841808,1.92903955 C4.4280226,1.77559322 4.62531073,1.62214689 4.93220339,1.46870056 C5.69943503,1.07412429 6.62011299,0.745310734 7.69423729,0.482259887 C8.76836158,0.197288136 9.90824859,0.0657627119 11.1138983,0.0657627119 C13.7224859,0.0657627119 15.6296045,0.657627119 16.8571751,1.84135593 C18.0628249,3.02508475 18.6766102,4.82259887 18.6766102,7.23389831 L18.6766102,14.3362712 L18.720452,14.3362712 Z M9.82056497,17.6682486 C10.5439548,17.6682486 11.2892655,17.5367232 12.0784181,17.2736723 C12.8675706,17.0106215 13.5690395,16.5283616 14.160904,15.8707345 C14.5116384,15.4542373 14.7746893,14.9938983 14.9062147,14.4677966 C15.0377401,13.9416949 15.1254237,13.3059887 15.1254237,12.560678 L15.1254237,11.64 C14.4897175,11.4865537 13.8101695,11.3550282 13.1087006,11.2673446 C12.4072316,11.179661 11.7276836,11.1358192 11.0481356,11.1358192 C9.57943503,11.1358192 8.50531073,11.420791 7.7819209,12.0126554 C7.05853107,12.6045198 6.70779661,13.4375141 6.70779661,14.5335593 C6.70779661,15.5638418 6.97084746,16.3310734 7.51887006,16.8571751 C8.04497175,17.4051977 8.81220339,17.6682486 9.82056497,17.6682486 Z M27.4230508,20.0357062 C27.0284746,20.0357062 26.7654237,19.9699435 26.5900565,19.8164972 C26.4146893,19.6849718 26.2612429,19.3780791 26.1297175,18.9615819 L20.9783051,2.01672316 C20.8467797,1.57830508 20.7810169,1.29333333 20.7810169,1.13988701 C20.7810169,0.789152542 20.9563842,0.591864407 21.3071186,0.591864407 L23.4553672,0.591864407 C23.8718644,0.591864407 24.1568362,0.657627119 24.3102825,0.811073446 C24.4856497,0.94259887 24.6171751,1.24949153 24.7487006,1.6659887 L28.4314124,16.1776271 L31.8510734,1.6659887 C31.960678,1.22757062 32.0922034,0.94259887 32.2675706,0.811073446 C32.4429379,0.679548023 32.7498305,0.591864407 33.1444068,0.591864407 L34.8980791,0.591864407 C35.3145763,0.591864407 35.599548,0.657627119 35.7749153,0.811073446 C35.9502825,0.94259887 36.1037288,1.24949153 36.1914124,1.6659887 L39.6549153,16.3529944 L43.4472316,1.6659887 C43.5787571,1.22757062 43.7322034,0.94259887 43.8856497,0.811073446 C44.0610169,0.679548023 44.3459887,0.591864407 44.740565,0.591864407 L46.779209,0.591864407 C47.1299435,0.591864407 47.3272316,0.767231638 47.3272316,1.13988701 C47.3272316,1.24949153 47.3053107,1.35909605 47.2833898,1.49062147 C47.2614689,1.62214689 47.2176271,1.79751412 47.1299435,2.03864407 L41.8470056,18.9835028 C41.7154802,19.4219209 41.5620339,19.7068927 41.3866667,19.8384181 C41.2112994,19.9699435 40.9263277,20.0576271 40.5536723,20.0576271 L38.6684746,20.0576271 C38.2519774,20.0576271 37.9670056,19.9918644 37.7916384,19.8384181 C37.6162712,19.6849718 37.4628249,19.4 37.3751412,18.9615819 L33.9774011,4.82259887 L30.6015819,18.939661 C30.4919774,19.3780791 30.360452,19.6630508 30.1850847,19.8164972 C30.0097175,19.9699435 29.7028249,20.0357062 29.3082486,20.0357062 L27.4230508,20.0357062 Z M55.5914124,20.6275706 C54.4515254,20.6275706 53.3116384,20.4960452 52.2155932,20.2329944 C51.119548,19.9699435 50.2646328,19.6849718 49.6946893,19.3561582 C49.3439548,19.1588701 49.1028249,18.939661 49.0151412,18.7423729 C48.9274576,18.5450847 48.8836158,18.3258757 48.8836158,18.1285876 L48.8836158,17.0106215 C48.8836158,16.5502825 49.0589831,16.3310734 49.3877966,16.3310734 C49.519322,16.3310734 49.6508475,16.3529944 49.7823729,16.3968362 C49.9138983,16.440678 50.1111864,16.5283616 50.3303955,16.6160452 C51.0757062,16.9448588 51.8867797,17.2079096 52.7416949,17.3832768 C53.6185311,17.5586441 54.4734463,17.6463277 55.3502825,17.6463277 C56.7312994,17.6463277 57.8054237,17.4051977 58.5507345,16.9229379 C59.2960452,16.440678 59.6906215,15.739209 59.6906215,14.840452 C59.6906215,14.2266667 59.4933333,13.7224859 59.0987571,13.3059887 C58.7041808,12.8894915 57.9588701,12.5168362 56.8847458,12.1661017 L53.7062147,11.179661 C52.1059887,10.6754802 50.9222599,9.93016949 50.1988701,8.94372881 C49.4754802,7.97920904 49.1028249,6.90508475 49.1028249,5.76519774 C49.1028249,4.84451977 49.300113,4.03344633 49.6946893,3.3319774 C50.0892655,2.63050847 50.6153672,2.01672316 51.2729944,1.53446328 C51.9306215,1.03028249 52.6759322,0.657627119 53.5527684,0.394576271 C54.4296045,0.131525424 55.3502825,0.021920904 56.3148023,0.021920904 C56.7970621,0.021920904 57.3012429,0.0438418079 57.7835028,0.10960452 C58.2876836,0.175367232 58.7480226,0.263050847 59.2083616,0.350734463 C59.6467797,0.460338983 60.0632768,0.569943503 60.4578531,0.701468927 C60.8524294,0.83299435 61.159322,0.964519774 61.3785311,1.0960452 C61.6854237,1.27141243 61.9046328,1.44677966 62.0361582,1.6440678 C62.1676836,1.81943503 62.2334463,2.06056497 62.2334463,2.36745763 L62.2334463,3.39774011 C62.2334463,3.8580791 62.0580791,4.09920904 61.7292655,4.09920904 C61.5538983,4.09920904 61.2689266,4.01152542 60.8962712,3.83615819 C59.6467797,3.26621469 58.2438418,2.98124294 56.6874576,2.98124294 C55.4379661,2.98124294 54.4515254,3.17853107 53.7719774,3.59502825 C53.0924294,4.01152542 52.7416949,4.64723164 52.7416949,5.5459887 C52.7416949,6.15977401 52.960904,6.68587571 53.399322,7.10237288 C53.8377401,7.51887006 54.6488136,7.93536723 55.8106215,8.3080226 L58.9233898,9.29446328 C60.5016949,9.79864407 61.6415819,10.500113 62.3211299,11.3988701 C63.000678,12.2976271 63.3294915,13.3279096 63.3294915,14.4677966 C63.3294915,15.4103955 63.1322034,16.2653107 62.759548,17.0106215 C62.3649718,17.7559322 61.8388701,18.4135593 61.159322,18.939661 C60.479774,19.4876836 59.6687006,19.8822599 58.7261017,20.1672316 C57.739661,20.4741243 56.7093785,20.6275706 55.5914124,20.6275706 Z" id="Shape" fill-rule="nonzero"></path>
            <g id="Group" transform="translate(0.000000, 24.551412)">
                <path d="M59.7344633,6.72971751 C52.5224859,12.0564972 42.0442938,14.8842938 33.0348023,14.8842938 C20.4083616,14.8842938 9.03141243,10.2151412 0.438418079,2.45514124 C-0.241129944,1.84135593 0.372655367,1.00836158 1.18372881,1.49062147 C10.4781921,6.88316384 21.9428249,10.1493785 33.8020339,10.1493785 C41.8031638,10.1493785 50.5934463,8.48338983 58.6822599,5.06372881 C59.8879096,4.51570621 60.9181921,5.85288136 59.7344633,6.72971751 Z" id="Path"></path>
                <path d="M62.7376271,3.3100565 C61.8169492,2.12632768 56.6436158,2.74011299 54.2980791,3.02508475 C53.5966102,3.11276836 53.4870056,2.49898305 54.1227119,2.03864407 C58.2438418,-0.854915254 65.0174011,-0.021920904 65.8065537,0.94259887 C66.5957062,1.92903955 65.5873446,8.70259887 61.7292655,11.9468927 C61.1374011,12.4510734 60.5674576,12.1880226 60.8305085,11.5303955 C61.7073446,9.36022599 63.6583051,4.47186441 62.7376271,3.3100565 Z" id="Path"></path>
            </g>
        </g>
    </g>
</svg>